<?xml version="1.0" encoding="utf-8"?>
<!-- Generator: Adobe Illustrator 22.1.0, SVG Export Plug-In . SVG Version: 6.00 Build 0)  -->
<svg version="1.1" id="Слой_1" xmlns="http://www.w3.org/2000/svg" xmlns:xlink="http://www.w3.org/1999/xlink" x="0px" y="0px"
	 width="14px" height="14px" viewBox="0 0 14 14" style="enable-background:new 0 0 14 14;" xml:space="preserve">
<path d="M7,0L6.8,0.2L4.4,2.6C4.3,2.7,4.3,2.9,4.4,3c0.1,0.1,0.3,0.1,0.4,0l1.9-1.9v5.6H1.1L3,4.8C3.1,4.7,3.1,4.6,3,4.5
	C3,4.4,2.9,4.3,2.7,4.3c-0.1,0-0.1,0-0.2,0.1L0.2,6.8L0,7l0.2,0.2l2.4,2.4c0.1,0.1,0.3,0.1,0.4,0c0.1-0.1,0.1-0.3,0-0.4L1.1,7.3h5.6
	v5.6L4.8,11c-0.1-0.1-0.2-0.1-0.3-0.1c-0.1,0-0.2,0.1-0.2,0.2c0,0.1,0,0.2,0.1,0.3l2.4,2.4L7,14l0.2-0.2l2.4-2.4
	c0.1-0.1,0.1-0.3,0-0.4s-0.3-0.1-0.4,0l-1.9,1.9V7.3h5.6L11,9.2c-0.1,0.1-0.1,0.3,0,0.4s0.3,0.1,0.4,0l2.4-2.4L14,7l-0.2-0.2
	l-2.4-2.4c-0.1-0.1-0.1-0.1-0.2-0.1c0,0,0,0,0,0c-0.1,0-0.2,0.1-0.2,0.2c0,0.1,0,0.2,0.1,0.3l1.9,1.9H7.3V1.1L9.2,3
	c0.1,0.1,0.3,0.1,0.4,0c0.1-0.1,0.1-0.3,0-0.4L7.2,0.2L7,0z"/>
</svg>
