<?xml version="1.0" encoding="utf-8"?>
<!-- Generator: Adobe Illustrator 22.1.0, SVG Export Plug-In . SVG Version: 6.00 Build 0)  -->
<svg version="1.1" id="Слой_1" xmlns="http://www.w3.org/2000/svg" xmlns:xlink="http://www.w3.org/1999/xlink" x="0px" y="0px"
	 width="14px" height="14px" viewBox="0 0 14 14" style="enable-background:new 0 0 14 14;" xml:space="preserve">
<path d="M11.1,7c-0.3,0-0.6,0.3-0.6,0.6v4.7c0,0.3-0.3,0.6-0.6,0.6H1.8c-0.3,0-0.6-0.3-0.6-0.6V4.1c0-0.3,0.3-0.6,0.6-0.6h4.7
	C6.7,3.5,7,3.2,7,2.9c0-0.3-0.3-0.6-0.6-0.6H1.8C0.8,2.3,0,3.1,0,4.1v8.2c0,1,0.8,1.8,1.8,1.8h8.2c1,0,1.8-0.8,1.8-1.8V7.6
	C11.7,7.3,11.4,7,11.1,7z"/>
<path d="M5.5,6.5c0,0-0.1,0.1-0.1,0.1L5,8.7c0,0.1,0,0.2,0.1,0.3C5.1,9,5.2,9,5.3,9c0,0,0,0,0.1,0l2.1-0.4c0.1,0,0.1,0,0.1-0.1
	l4.6-4.6l-2.1-2.1L5.5,6.5z"/>
<path d="M13.6,0.4c-0.6-0.6-1.5-0.6-2.1,0l-0.8,0.8l2.1,2.1l0.8-0.8c0.3-0.3,0.4-0.6,0.4-1S13.8,0.7,13.6,0.4z"/>
</svg>
