<?xml version="1.0" encoding="utf-8"?>
<!-- Generator: Adobe Illustrator 22.1.0, SVG Export Plug-In . SVG Version: 6.00 Build 0)  -->
<svg version="1.1" id="Слой_1" xmlns="http://www.w3.org/2000/svg" xmlns:xlink="http://www.w3.org/1999/xlink" x="0px" y="0px"
	 width="150px" height="31.5px" viewBox="0 0 150 31.5" style="enable-background:new 0 0 150 31.5;" xml:space="preserve">
<style type="text/css">
	.st0{fill:#8B3FFD;}
</style>
<path class="st0" d="M28.6,0c-8.8,0-15.7,7.1-15.7,15.7c0,8.8,7.1,15.7,15.7,15.7s15.7-7.1,15.7-15.7C44.5,7.1,37.3,0,28.6,0z
	 M28.6,21.6c-3.2,0-5.9-2.7-5.9-5.9s2.7-5.9,5.9-5.9s5.9,2.7,5.9,5.9S31.9,21.6,28.6,21.6z"/>
<path class="st0" d="M12.9,4.6v22.9H7.2L0,4.6H12.9L12.9,4.6z"/>
<path d="M145.7,8.7l-3.5,8.6c-0.1,0.1-0.1,0.3-0.1,0.4l-0.1,0.2l-0.1-0.2c0-0.1-0.1-0.3-0.1-0.4l-3.5-8.6h-4.5l5.9,14.7l-2.5,5.6
	h4.5L150,8.7H145.7L145.7,8.7z"/>
<path d="M112.6,9.5c-0.8-0.6-1.8-1-3-1.1c-2-0.2-3.9,0.5-5.2,1.8V8.6h-4.1v14.7h4.1v-7.7c0-1.7,0.3-2.2,0.6-2.6
	c0.5-0.8,1.4-1.2,2.5-1.2c1.1,0,2.1,0.5,2.6,1.3c0.3,0.6,0.4,1.4,0.4,1.8c0,1.3,0,8.4,0,8.4h4.1v-8.9
	C114.6,12.1,113.9,10.5,112.6,9.5z"/>
<path d="M92.6,8.8c-2-0.7-4.2-0.6-6.2,0.3c-1.3,0.6-2.5,1.6-3.2,2.9c-0.7,1.1-1,2.5-1,4s0.3,2.9,1,4s1.6,2.1,2.8,2.7
	c1.2,0.6,2.6,1,3.9,1c0.7,0,1.4-0.1,2.1-0.3c0.6-0.2,1.2-0.4,1.8-0.7c1.2-0.7,2.2-1.6,2.8-2.7c0.7-1.1,1-2.5,1-4
	C97.7,12.7,95.8,9.9,92.6,8.8z M93.8,16.1c-0.1,1.3-0.5,2.4-1.3,3.1c-0.6,0.5-1.5,0.8-2.6,0.9c-1.1,0-1.9-0.3-2.6-0.9
	c-0.8-0.7-1.2-1.8-1.3-3.1c-0.1-1.5,0.5-2.7,1.6-3.5c0.6-0.4,1.4-0.7,2.2-0.7c0.9,0,1.6,0.3,2.3,0.7C93.3,13.4,93.9,14.7,93.8,16.1z
	"/>
<path d="M77.5,9.5c-0.8-0.6-1.8-1-3-1.1c-0.2,0-0.5,0-0.7,0c-1.6,0-3,0.7-4.2,2.1l-0.2,0.3h-0.4c-0.3-0.5-0.7-0.9-1.1-1.2
	c-0.8-0.6-1.8-1-3-1.1c-1.9-0.2-3.4,0.4-4.7,1.8V8.8h-4.1v14.7h4.1v-7.7v-0.2c0-1.6,0.2-2,0.5-2.5c0.5-0.8,1.4-1.3,2.4-1.2
	c1,0,1.9,0.5,2.4,1.3c0.4,0.6,0.4,1.3,0.4,2v8.2h4.1v-7.9c0-1.5,0.2-2,0.5-2.5c0.5-0.8,1.4-1.2,2.4-1.2c1,0,1.8,0.5,2.3,1.3
	c0.3,0.5,0.4,1.1,0.4,1.5c0,0.2,0,0.4,0,0.5v8.2h4.1v-9c0-0.8-0.1-1.6-0.3-2.3C79,11,78.4,10.1,77.5,9.5z"/>
<path d="M130,18.8c-0.6,0.6-2,1.7-3.9,1.8c-1.6,0.1-2.8-0.4-3.7-1.3c-0.4-0.4-0.7-1-0.9-1.6h11.3v-0.1c0.1-0.6,0.2-1.1,0.2-1.7
	c0-0.5-0.1-1.2-0.3-2.1c-0.5-1.7-1.5-3-2.8-4c-1.5-1.1-2.9-1.4-3.3-1.4c-2.9-0.5-6.2,0.8-7.9,3.5c-1.2,1.9-1.1,3.8-1.1,4.4
	c0,0.7,0.1,2.9,1.9,4.9c2.1,2.3,5,2.4,5.9,2.5c4,0.1,6.7-2.4,7.3-2.9L130,18.8z M123,12.7c0.6-0.4,1.3-0.7,2.2-0.7
	c0.9,0,1.6,0.3,2.3,0.7c0.6,0.5,1.1,1.1,1.4,1.8h-7.2C121.8,13.8,122.3,13.1,123,12.7z"/>
</svg>
